<svg id="icons" xmlns="http://www.w3.org/2000/svg" viewBox="0 0 511.99 511.99"><title>118</title><path d="M275.42,307.8A65.57,65.57,0,1,0,341,242.24c-3.24,0-5.67.81-8.9.81l-10.52-31.57c-1.62-4-4.86-6.48-8.9-6.48H213.91l-17-37.23h32.38a9.71,9.71,0,1,0,0-19.43H183.15a10,10,0,0,0-8.09,4c-1.62,2.43-1.62,6.48-.81,8.9l2.43,5.67,26.71,57.47-11.33,20.24c-5.67-1.62-12.14-3.24-18.62-3.24-38,0-67.18,29.14-67.18,65.57a65.57,65.57,0,1,0,131.13,0c0-22.66-11.33-42.9-29.14-54.23l4-6.47L223.62,226l1.62-2.43h68a17.5,17.5,0,0,1,17,12.14l4,12.14C291.61,258.43,275.42,281.09,275.42,307.8ZM218,306.18A47,47,0,0,1,171,353.13c-25.09,0-46.14-21-46.14-46.14A47,47,0,0,1,171.81,260a39.41,39.41,0,0,1,9.71.81l-22.66,42.09c-.81,2.43-1.62,4.86-.81,7.28s2.43,4,4.86,5.67c4.86,2.43,9.71.81,12.14-4l23.47-43.71A46.79,46.79,0,0,1,218,306.18ZM319.13,264.9,328.85,294c.81,2.43,2.43,4,4.86,5.66,2.43.81,4.86,1.62,7.28.81,4.86-1.62,7.28-7.28,5.67-12.14L337.75,260h2.43A46.95,46.95,0,1,1,293.23,307C293.23,288.38,303.75,273,319.13,264.9Z"/><path d="M280.28,168.58a3.56,3.56,0,0,0,.81,4c8.09,7.29,17,12.14,30.76,12.14h28.33c4.86,0,9.71-4,8.9-8.9a9.84,9.84,0,0,0-9.71-9.71H283.52C281.9,166.15,281.09,167,280.28,168.58Z"/><path d="M360.42,79.54h0l-12.14,21A184,184,0,0,1,440.55,260C440.55,361.23,358,444.6,256,444.6A184.48,184.48,0,0,1,71.44,260c0-72.12,42.4-135.23,103.61-165.32V116H247.9V101.44h40.47a9.75,9.75,0,1,0,0-19.51H247.9V77.15h40.47a9.75,9.75,0,1,0,0-19.51H247.9V43.11H175.05V68.38C100,100.34,47.16,174.09,47.16,260,47.16,375,141.05,468.89,256,468.89S464.84,375,464.84,260C464.84,183.15,422.74,116,360.42,79.54Z"/></svg>