<?xml version="1.0" encoding="iso-8859-1"?>
<!-- Uploaded to: SVG Repo, www.svgrepo.com, Generator: SVG Repo Mixer Tools -->
<svg width="20px" height="20px" enable-background="new 0 0 64 64" version="1.1" id="Capa_1" xmlns="http://www.w3.org/2000/svg" xmlns:xlink="http://www.w3.org/1999/xlink" 
	 viewBox="0 0 53.889 53.889" xml:space="preserve">

		<g>
			<path fill="#000" d="M26.946,9.516c2.628,0,4.755-2.127,4.755-4.759C31.701,2.132,29.575,0,26.946,0
				c-2.627,0-4.761,2.132-4.761,4.758C22.185,7.389,24.319,9.516,26.946,9.516z"/>
			<path fill="#000" d="M46.975,11.053c-0.01,0-9.144,0-9.152,0H26.94H16.062v0.006c-0.006,0-9.14,0-9.149,0
				c-1.106,0-2.004,0.898-2.004,2.009c0,1.104,0.898,2.004,2.004,2.004c0.01,0,9.144,0,9.149,0h4.564v0.175l-0.017,35.928
				c0,1.5,1.214,2.714,2.711,2.714s2.714-1.214,2.714-2.714V29.176h1.213v22.025l0.019,0.021c0.02,1.476,1.221,2.666,2.7,2.666
				c1.487,0,2.698-1.207,2.698-2.693l-0.012-35.998l-0.009-0.123h5.179V15.07c0.01,0,9.144,0,9.151,0
				c1.111,0,2.006-0.899,2.006-2.011C48.983,11.957,48.089,11.053,46.975,11.053z"/>
		</g>
</svg>