<svg data-name="Capa 1" xmlns="http://www.w3.org/2000/svg" viewBox="0 0 16.801 20.006"><path d="M5.51 3.705a.765.765 0 1 0-1.285-.829L2.978 4.8a.765.765 0 0 0 1.282.834ZM9.845 1.424a1.417 1.417 0 1 0-1.412 1.421 1.415 1.415 0 0 0 1.412-1.421ZM10.311 12.643a3.2 3.2 0 1 0 1.628-2.786L10.214 7.3l.636-.324.062.048a.511.511 0 0 0 .614-.816L7.831 3.429a.979.979 0 0 0-.337-.369 1.024 1.024 0 0 0-1.408.3l-2.7 4.186a1.023 1.023 0 0 0 .856 1.575 1.057 1.057 0 0 0 .386-.083l.417.32-.851 2.242a3.285 3.285 0 0 0-.9-.128 3.21 3.21 0 1 0 3.216 3.2c0-.048-.008-.092-.008-.14l1.944-.232a.245.245 0 0 0 .1-.035l.005-.005a.3.3 0 0 0 .079-.083l.013-.013 2.378-4.739.487.724a3.242 3.242 0 0 0-1.193 2.5Zm-6.99-.649a2.684 2.684 0 0 1 .7.1L3.079 14.6v.009a.2.2 0 0 0-.008.048.191.191 0 0 0-.005.053v.009l.013.043c0 .014 0 .022.009.036a.288.288 0 0 0 .053.074.258.258 0 0 0 .175.07h.031l2.659-.329v.079a2.692 2.692 0 1 1-2.689-2.694Zm1.18.276a2.709 2.709 0 0 1 1.444 1.83l-2.238.277Zm.974-2.58 1.979 1.519.206 2.61a.4.4 0 0 0 .018.066l-1.224.154a3.21 3.21 0 0 0-1.769-2.247Zm4.261-2.707-.009.009S9.714 7 9.709 7a.211.211 0 0 0-.03.03l-.027.027a.278.278 0 0 0-.03.052.242.242 0 0 0-.022.091v.036a.238.238 0 0 0 .017.057.073.073 0 0 0 .009.026s0 0 .009.009 0 .013.009.017l.539.8-4.295.566-.544-.411 2.373-3.686L10.4 6.636Zm.974 1.961L8.626 13.1l-.171-2.194c0-.009-.005-.013-.005-.018 0-.022-.013-.044-.017-.066a.253.253 0 0 0-.079-.166.5.5 0 0 0-.088-.1l-.009-.009-1.8-1.382 4.006-.527.035-.013Zm5.5 3.7a2.694 2.694 0 1 1-4.41-2.08l1.5 2.22a.254.254 0 0 0 .421-.285l-1.5-2.221a2.7 2.7 0 0 1 3.989 2.365Z"/><path d="M5.681 20.006H9.1a11.2 11.2 0 0 0 6.152-3.089 1.325 1.325 0 0 1-.351-.022l-.382-.083a1.443 1.443 0 0 0-1.233.439l-.171.2a1.268 1.268 0 0 1-1.22.369l-2.106-.672a3.056 3.056 0 0 0-1.4-.048l-2.058.5a13.752 13.752 0 0 0-1.4.434s-1.606.614-2.523.935a11.149 11.149 0 0 0 3.273 1.037Z"/><path style="fill:none" d="M-3.6-1.994h24v24h-24z"/></svg>