<svg data-name="Capa 1" xmlns="http://www.w3.org/2000/svg" viewBox="0 0 18.313 17.354"><path d="M4.056 9.291a4.027 4.027 0 1 0 3.956 4.758 1.037 1.037 0 0 0 .7.291.736.736 0 0 0 .174-.019 1.011 1.011 0 0 0 .722-.525c.173-.056.29-.169.29-.3a.3.3 0 0 0-.178-.253c-.005-.028 0-.061-.005-.089L9.226 10.3l2.738-1.669.436 1.091a4.06 4.06 0 1 0 .624-.253l-.469-1.19.506-.31a2.107 2.107 0 0 0 .459-.361.626.626 0 0 0 .657-1.017l-3.184-3.647c-.023-.023-.051-.042-.079-.066a1.025 1.025 0 0 0-.164-.506 1.014 1.014 0 0 0-1.407-.286L5.19 4.847c-.009.01-.019.014-.028.024a.644.644 0 0 0-.061.042l-.042.042A.664.664 0 0 0 5 5.016l-.068.084-.051.08a.708.708 0 0 0-.047.084l-.042.1a.459.459 0 0 0-.024.08.97.97 0 0 0-.023.117.384.384 0 0 0-.009.075.5.5 0 0 0 0 .122v.07a1.051 1.051 0 0 0 .024.122.382.382 0 0 0 .023.07 1.082 1.082 0 0 0 .047.113.5.5 0 0 0 .037.07c.01.014.019.037.029.051s.023.024.032.038a.336.336 0 0 0 .033.047l1.195 1.433-.97 1.692a3.98 3.98 0 0 0-1.13-.173Zm8.527.9L13.89 13.5c.1.263.324.417.5.347s.23-.333.127-.6l-1.306-3.304a3.458 3.458 0 0 1 1-.141 3.535 3.535 0 1 1-1.631.394Zm-5.461 1.397a3.492 3.492 0 0 1 .45 1.566H4.548l2.574-1.566Zm-2.944 1 1.4-2.442a3.53 3.53 0 0 1 1.153.886Zm3-1.823a4.005 4.005 0 0 0-1.345-1.06l.8-1.387.257.309.361 2.091-.07.047Zm5.874-3.549a3.346 3.346 0 0 0-.343.174l-.417.253H8.682a.7.7 0 0 0-.046-.056c-.01-.01-.014-.028-.029-.038L7.248 5.911 10.2 3.957Zm-3.943 2.37-.22-1.275H11.2Zm-5.048 7.257a3.459 3.459 0 0 1-.877-.113 3.519 3.519 0 0 1 1.753-6.816l-1.8 3.136a.77.77 0 0 0-.113.474.192.192 0 0 0 0 .169c.051.089.215.093.426.042a.683.683 0 0 0 .352.1h3.74a3.522 3.522 0 0 1-3.482 3.01ZM14.022 1.51a1.507 1.507 0 1 0-1.505 1.509 1.516 1.516 0 0 0 1.505-1.509Z"/><path style="fill:none" d="M-2.807-3.323h24v24h-24z"/></svg>